# Made in Blockbench 5.0.4
mtllib HPWorkstation.mtl

o cube
v 0.5 1.0625 0.25
v 0.5 1.0625 -0.25
v 0.5 0 0.25
v 0.5 0 -0.25
v -0.5 1.0625 -0.25
v -0.5 1.0625 0.25
v -0.5 0 -0.25
v -0.5 0 0.25
vt 0 1
vt 0.25 1
vt 0.25 0.734375
vt 0 0.734375
vt 0 0.734375
vt 0.125 0.734375
vt 0.125 0.46875
vt 0 0.46875
vt 0.25 1
vt 0.5 1
vt 0.5 0.734375
vt 0.25 0.734375
vt 0.125 0.734375
vt 0.25 0.734375
vt 0.25 0.46875
vt 0.125 0.46875
vt 0.5 0.609375
vt 0.25 0.609375
vt 0.25 0.734375
vt 0.5 0.734375
vt 0.5 0.609375
vt 0.25 0.609375
vt 0.25 0.484375
vt 0.5 0.484375
vn 0 0 -1
vn 1 0 0
vn 0 0 1
vn -1 0 0
vn 0 1 0
vn 0 -1 0
usemtl m_f1b001a3-94b3-e490-489a-5d7d73824059
f 4/4/1 7/3/1 5/2/1 2/1/1
f 3/8/2 4/7/2 2/6/2 1/5/2
f 8/12/3 3/11/3 1/10/3 6/9/3
f 7/16/4 8/15/4 6/14/4 5/13/4
f 6/20/5 1/19/5 2/18/5 5/17/5
f 7/24/6 4/23/6 3/22/6 8/21/6